# This file uses centimeters as units for non-parametric coordinates.

mtllib PLACEHOLDER TACO.mtl
g default
v -9.519530 4.854369 1.132107
v -9.519530 4.653399 1.333074
v -9.519530 4.444618 1.388940
v -9.519530 4.910227 0.923328
v -9.519530 4.444618 0.923328
v 0.102723 4.854369 1.132107
v 0.102723 4.653399 1.333074
v 0.102723 4.444618 1.388940
v 0.102723 4.910227 0.923328
v 0.102723 4.444618 0.923328
v 0.102723 4.854369 -3.439173
v 0.102723 4.653399 -3.640140
v 0.102723 4.444618 -3.696006
v 0.102723 4.910227 -3.230394
v 0.102723 4.444618 -3.230394
v -9.519530 4.854369 -3.439173
v -9.519530 4.653399 -3.640140
v -9.519530 4.444618 -3.696006
v -9.519530 4.910227 -3.230394
v -9.519530 4.444618 -3.230394
v -9.334281 0.293424 1.075796
v -0.082525 0.293424 1.075796
v -9.334281 0.519555 1.075796
v -0.082525 0.519555 1.075796
v -9.334281 0.519555 -3.386201
v -0.082525 0.519555 -3.386201
v -9.334281 0.293424 -3.386201
v -0.082525 0.293424 -3.386201
v -9.245123 0.519555 -3.000000
v -9.245123 4.444618 -3.000000
v -9.245123 4.444618 -3.128897
v -9.245123 0.519555 -3.128897
v -9.245123 2.040570 -3.128897
v -9.245123 2.040570 -3.000000
v -9.245123 3.890831 -3.128897
v -9.245123 3.890831 -3.000000
v -8.069774 3.890831 -3.128897
v -8.069774 4.444618 -3.128897
v -8.069774 4.444618 -3.000000
v -8.069774 3.890831 -3.000000
v -8.069774 2.040570 -3.000000
v -8.069774 0.519555 -3.000000
v -8.069774 0.519555 -3.128897
v -8.069774 2.040570 -3.128897
v -9.116226 0.519555 -3.000000
v -9.116226 2.040570 -3.000000
v -9.116226 3.890831 -3.000000
v -9.116226 4.444618 -3.000000
v -9.116226 4.444618 -3.128897
v -9.116226 3.890831 -3.128897
v -9.116226 2.040570 -3.128897
v -9.116226 0.519555 -3.128897
v -9.245123 0.519555 0.689595
v -9.245123 4.444618 0.689595
v -9.245123 4.444618 0.818492
v -9.245123 0.519555 0.818492
v -9.245123 2.040570 0.818492
v -9.245123 2.040570 0.689595
v -9.245123 3.890831 0.818492
v -9.245123 3.890831 0.689595
v -8.069774 3.890831 0.818492
v -8.069774 4.444618 0.818492
v -8.069774 4.444618 0.689595
v -8.069774 3.890831 0.689595
v -8.069774 2.040570 0.689595
v -8.069774 0.519555 0.689595
v -8.069774 0.519555 0.818492
v -8.069774 2.040570 0.818492
v -9.116226 0.519555 0.689595
v -9.116226 2.040570 0.689595
v -9.116226 3.890831 0.689595
v -9.116226 4.444618 0.689595
v -9.116226 4.444618 0.818492
v -9.116226 3.890831 0.818492
v -9.116226 2.040570 0.818492
v -9.116226 0.519555 0.818492
v -0.171684 0.519555 -3.000000
v -0.171684 4.444618 -3.000000
v -0.171684 4.444618 -3.128897
v -0.171684 0.519555 -3.128897
v -0.171684 2.040570 -3.128897
v -0.171684 2.040570 -3.000000
v -0.171684 3.890831 -3.128897
v -0.171684 3.890831 -3.000000
v -1.347034 3.890831 -3.128897
v -1.347034 4.444618 -3.128897
v -1.347034 4.444618 -3.000000
v -1.347034 3.890831 -3.000000
v -1.347034 2.040570 -3.000000
v -1.347034 0.519555 -3.000000
v -1.347034 0.519555 -3.128897
v -1.347034 2.040570 -3.128897
v -0.300581 0.519555 -3.000000
v -0.300581 2.040570 -3.000000
v -0.300581 3.890831 -3.000000
v -0.300581 4.444618 -3.000000
v -0.300581 4.444618 -3.128897
v -0.300581 3.890831 -3.128897
v -0.300581 2.040570 -3.128897
v -0.300581 0.519555 -3.128897
v -0.171684 0.519555 0.689595
v -0.171684 4.444618 0.689595
v -0.171684 4.444618 0.818492
v -0.171684 0.519555 0.818492
v -0.171684 2.040570 0.818492
v -0.171684 2.040570 0.689595
v -0.171684 3.890831 0.818492
v -0.171684 3.890831 0.689595
v -2.678631 3.890831 0.818492
v -2.678631 4.444618 0.818492
v -2.678631 4.444618 0.689595
v -2.678631 3.890831 0.689595
v -2.678631 2.040570 0.689595
v -2.678631 0.519555 0.689595
v -2.678631 0.519555 0.818492
v -2.678631 2.040570 0.818492
v -0.300581 0.519555 0.689595
v -0.300581 2.040570 0.689595
v -0.300581 3.890831 0.689595
v -0.300581 4.444618 0.689595
v -0.300581 4.444618 0.818492
v -0.300581 3.890831 0.818492
v -0.300581 2.040570 0.818492
v -0.300581 0.519555 0.818492
v -0.171684 3.890831 -2.056926
v -0.171684 4.444618 -2.056926
v -0.300581 4.444618 -2.056926
v -0.300581 3.890831 -2.056926
v -0.300581 2.040570 -2.056926
v -0.300581 0.519555 -2.056926
v -0.171684 0.519555 -2.056926
v -0.171684 2.040570 -2.056926
v -0.171684 3.890831 -0.253479
v -0.171684 4.444618 -0.253479
v -0.300581 4.444618 -0.253479
v -0.300581 3.890831 -0.253479
v -0.300581 2.040570 -0.253479
v -0.300581 0.519555 -0.253479
v -0.171684 0.519555 -0.253479
v -0.171684 2.040570 -0.253479
vt 0.637506 0.086187
vt 0.570063 0.018744
vt 0.462500 0.156250
vt 0.656250 0.156250
vt 0.381250 0.312500
vt 0.406250 0.312500
vt 0.612500 0.312500
vt 0.625000 0.312500
vt 0.612500 0.687500
vt 0.578125 0.156250
vt 0.656250 0.156250
vt 0.381250 0.312500
vt 0.406250 0.312500
vt 0.462500 0.156250
vt 0.612500 0.312500
vt 0.625000 0.312500
vt 0.612500 0.687500
vt 0.570063 0.018744
vt 0.637506 0.086187
vt 0.578125 0.156250
vt 0.656250 0.156250
vt 0.656250 0.156250
vt 0.570063 0.018744
vt 0.637506 0.086187
vt 0.578125 0.156250
vt 0.462500 0.156250
vt 0.656250 0.156250
vt 0.612500 0.687500
vt 0.612500 0.687500
vt 0.656250 0.156250
vt 0.406250 0.312500
vt 0.406250 0.312500
vt 0.381250 0.312500
vt 0.381250 0.312500
vt 0.462500 0.156250
vt 0.625000 0.312500
vt 0.625000 0.312500
vt 0.612500 0.312500
vt 0.612500 0.312500
vt 0.570063 0.018744
vt 0.578125 0.156250
vt 0.637506 0.086187
vt 0.656250 0.156250
vt 0.656250 0.156250
vt 0.375000 0.000000
vt 0.625000 0.000000
vt 0.625000 0.250000
vt 0.375000 0.250000
vt 0.625000 0.500000
vt 0.375000 0.500000
vt 0.625000 0.750000
vt 0.375000 0.750000
vt 0.625000 1.000000
vt 0.375000 1.000000
vt 0.875000 0.000000
vt 0.875000 0.250000
vt 0.125000 0.000000
vt 0.125000 0.250000
vt 0.125000 0.221206
vt 0.375000 0.221206
vt 0.375000 0.250000
vt 0.125000 0.250000
vt 0.125000 0.000000
vt 0.375000 0.000000
vt 0.375000 0.125000
vt 0.125000 0.125000
vt 0.375000 0.500000
vt 0.384052 0.500000
vt 0.384052 0.528795
vt 0.375000 0.528795
vt 0.384052 0.250000
vt 0.375000 0.750000
vt 0.384052 0.750000
vt 0.384052 1.000000
vt 0.375000 1.000000
vt 0.375000 0.625000
vt 0.384052 0.625000
vt 0.458333 0.528795
vt 0.458333 0.528795
vt 0.458333 0.500000
vt 0.458333 0.500000
vt 0.458333 0.250000
vt 0.458333 0.250000
vt 0.458333 0.221206
vt 0.458333 0.221206
vt 0.458333 0.125000
vt 0.458333 0.000000
vt 0.458333 0.000000
vt 0.458333 0.125000
vt 0.458333 1.000000
vt 0.458333 0.750000
vt 0.458333 0.750000
vt 0.458333 1.000000
vt 0.458333 0.625000
vt 0.458333 0.625000
vt 0.384052 0.125000
vt 0.384052 0.000000
vt 0.384052 0.221205
vt 0.541667 0.250000
vt 0.541667 0.221206
vt 0.541667 0.221206
vt 0.541667 0.250000
vt 0.541667 0.500000
vt 0.541667 0.500000
vt 0.541667 0.528795
vt 0.541667 0.528795
vt 0.541667 1.000000
vt 0.541667 0.750000
vt 0.541667 0.750000
vt 0.541667 1.000000
vt 0.541667 0.625000
vt 0.541667 0.625000
vt 0.541667 0.125000
vt 0.541667 0.000000
vt 0.541667 0.000000
vt 0.541667 0.125000
vt 0.125000 0.221206
vt 0.125000 0.250000
vt 0.375000 0.250000
vt 0.375000 0.221206
vt 0.125000 0.000000
vt 0.125000 0.125000
vt 0.375000 0.125000
vt 0.375000 0.000000
vt 0.375000 0.500000
vt 0.375000 0.528795
vt 0.384052 0.528795
vt 0.384052 0.500000
vt 0.384052 0.250000
vt 0.375000 0.750000
vt 0.375000 1.000000
vt 0.384052 1.000000
vt 0.384052 0.750000
vt 0.375000 0.625000
vt 0.384052 0.625000
vt 0.458333 0.500000
vt 0.458333 0.528795
vt 0.458333 0.528795
vt 0.458333 0.500000
vt 0.458333 0.250000
vt 0.458333 0.250000
vt 0.458333 0.221206
vt 0.458333 0.221206
vt 0.458333 0.000000
vt 0.458333 0.125000
vt 0.458333 0.125000
vt 0.458333 0.000000
vt 0.458333 0.750000
vt 0.458333 1.000000
vt 0.458333 1.000000
vt 0.458333 0.750000
vt 0.458333 0.625000
vt 0.458333 0.625000
vt 0.384052 0.125000
vt 0.384052 0.000000
vt 0.384052 0.221205
vt 0.125000 0.221206
vt 0.125000 0.250000
vt 0.375000 0.250000
vt 0.375000 0.221206
vt 0.125000 0.000000
vt 0.125000 0.125000
vt 0.375000 0.125000
vt 0.375000 0.000000
vt 0.375000 0.500000
vt 0.375000 0.528795
vt 0.384052 0.528795
vt 0.384052 0.500000
vt 0.384052 0.250000
vt 0.375000 0.750000
vt 0.375000 1.000000
vt 0.384052 1.000000
vt 0.384052 0.750000
vt 0.375000 0.625000
vt 0.384052 0.625000
vt 0.384052 0.125000
vt 0.384052 0.000000
vt 0.384052 0.221205
vt 0.125000 0.221206
vt 0.375000 0.221206
vt 0.375000 0.250000
vt 0.125000 0.250000
vt 0.125000 0.000000
vt 0.375000 0.000000
vt 0.375000 0.125000
vt 0.125000 0.125000
vt 0.375000 0.500000
vt 0.384052 0.500000
vt 0.384052 0.528795
vt 0.375000 0.528795
vt 0.384052 0.250000
vt 0.375000 0.750000
vt 0.384052 0.750000
vt 0.384052 1.000000
vt 0.375000 1.000000
vt 0.375000 0.625000
vt 0.384052 0.625000
vt 0.384052 0.125000
vt 0.384052 0.000000
vt 0.384052 0.221205
vt 0.541667 0.250000
vt 0.541667 0.250000
vt 0.541667 0.221206
vt 0.541667 0.221206
vt 0.541667 0.500000
vt 0.541667 0.500000
vt 0.541667 0.528795
vt 0.541667 0.528795
vt 0.541667 0.500000
vt 0.541667 1.000000
vt 0.541667 0.750000
vt 0.541667 0.750000
vt 0.541667 0.625000
vt 0.541667 0.625000
vt 0.541667 0.125000
vt 0.541667 0.125000
vt 0.541667 0.000000
vt 0.541667 0.250000
vt 0.541667 0.250000
vt 0.541667 0.221206
vt 0.541667 0.221206
vt 0.541667 0.500000
vt 0.541667 0.500000
vt 0.541667 0.528795
vt 0.541667 0.528795
vt 0.541667 0.625000
vt 0.541667 0.625000
vt 0.541667 0.750000
vt 0.541667 0.750000
vt 0.541667 1.000000
vt 0.541667 0.500000
vt 0.541667 0.125000
vt 0.541667 0.125000
vt 0.541667 0.000000
vn -1.000000 0.000000 0.000000
vn -1.000000 0.000000 0.000000
vn -1.000000 0.000000 0.000000
vn -1.000000 0.000000 0.000000
vn -1.000000 0.000000 0.000000
vn 0.000000 0.531096 0.847311
vn 0.000000 0.531096 0.847311
vn 0.000000 0.847312 0.531095
vn 0.000000 0.847312 0.531095
vn 0.000000 0.258488 0.966015
vn 0.000000 0.258488 0.966015
vn 0.000000 0.966023 0.258457
vn 0.000000 0.966023 0.258457
vn 1.000000 -0.000000 0.000000
vn 1.000000 -0.000000 0.000000
vn 1.000000 0.000000 0.000000
vn 1.000000 -0.000000 0.000000
vn 1.000000 0.000000 0.000000
vn 1.000000 0.000000 -0.000000
vn 1.000000 0.000000 -0.000000
vn 1.000000 0.000000 -0.000000
vn 1.000000 0.000000 -0.000000
vn 1.000000 0.000000 0.000000
vn 1.000000 0.000000 0.000000
vn 1.000000 0.000000 0.000000
vn 1.000000 0.000000 0.000000
vn 1.000000 0.000000 0.000000
vn 0.000000 1.000000 0.000000
vn 0.000000 1.000000 0.000000
vn 0.000000 1.000000 0.000000
vn 0.000000 1.000000 0.000000
vn 0.000000 0.531096 -0.847311
vn 0.000000 0.531096 -0.847311
vn 0.000000 0.847312 -0.531095
vn 0.000000 0.847312 -0.531095
vn 0.000000 0.258488 -0.966015
vn 0.000000 0.258488 -0.966015
vn 0.000000 0.966023 -0.258457
vn 0.000000 0.966023 -0.258457
vn -1.000000 -0.000001 0.000000
vn -1.000000 -0.000000 0.000000
vn -1.000000 0.000000 0.000000
vn -1.000000 -0.000001 0.000000
vn -1.000000 0.000000 0.000000
vn -1.000000 0.000000 0.000000
vn -1.000000 0.000000 0.000000
vn -1.000000 0.000000 0.000000
vn -1.000000 0.000000 0.000000
vn 0.000000 -1.000000 0.000000
vn 0.000000 -1.000000 0.000000
vn 0.000000 -1.000000 0.000000
vn 0.000000 -1.000000 0.000000
vn 0.000000 -1.000000 0.000000
vn 0.000000 -1.000000 0.000000
vn 0.000000 -1.000000 0.000000
vn 0.000000 -1.000000 0.000000
vn 0.000000 -1.000000 0.000000
vn 0.000000 -1.000000 0.000000
vn 0.000000 -1.000000 0.000000
vn 0.000000 -1.000000 0.000000
vn 0.000000 0.000000 1.000000
vn 0.000000 0.000000 1.000000
vn 0.000000 0.000000 1.000000
vn 0.000000 0.000000 1.000000
vn 0.000000 1.000000 0.000000
vn 0.000000 1.000000 0.000000
vn 0.000000 1.000000 0.000000
vn 0.000000 1.000000 0.000000
vn 0.000000 0.000000 -1.000000
vn 0.000000 0.000000 -1.000000
vn 0.000000 0.000000 -1.000000
vn 0.000000 0.000000 -1.000000
vn 0.000000 -1.000000 0.000000
vn 0.000000 -1.000000 0.000000
vn 0.000000 -1.000000 0.000000
vn 0.000000 -1.000000 0.000000
vn 1.000000 0.000000 0.000000
vn 1.000000 0.000000 0.000000
vn 1.000000 0.000000 0.000000
vn 1.000000 0.000000 0.000000
vn -1.000000 0.000000 0.000000
vn -1.000000 0.000000 0.000000
vn -1.000000 0.000000 0.000000
vn -1.000000 0.000000 0.000000
vn -1.000000 0.000000 0.000000
vn -1.000000 0.000000 0.000000
vn -1.000000 0.000000 0.000000
vn -1.000000 0.000000 0.000000
vn -1.000000 0.000000 0.000000
vn -1.000000 0.000000 0.000000
vn -1.000000 0.000000 0.000000
vn -1.000000 0.000000 0.000000
vn 0.000000 0.000000 -1.000000
vn 0.000000 0.000000 -1.000000
vn 0.000000 0.000000 -1.000000
vn 0.000000 0.000000 -1.000000
vn 0.000000 1.000000 0.000000
vn 0.000000 1.000000 0.000000
vn 0.000000 1.000000 0.000000
vn 0.000000 1.000000 0.000000
vn 0.000000 -1.000000 0.000000
vn 0.000000 -1.000000 0.000000
vn 0.000000 -1.000000 0.000000
vn 0.000000 -1.000000 0.000000
vn 0.000000 0.000000 -1.000000
vn 0.000000 0.000000 -1.000000
vn 0.000000 0.000000 -1.000000
vn 0.000000 0.000000 -1.000000
vn 0.000000 0.000000 -1.000000
vn 0.000000 0.000000 -1.000000
vn 0.000000 0.000000 -1.000000
vn 0.000000 0.000000 -1.000000
vn 0.000000 1.000000 0.000000
vn 0.000000 1.000000 0.000000
vn 0.000000 1.000000 0.000000
vn 0.000000 1.000000 0.000000
vn 0.000000 0.000000 1.000000
vn 0.000000 0.000000 1.000000
vn 0.000000 0.000000 1.000000
vn 0.000000 0.000000 1.000000
vn 0.000000 0.000000 1.000000
vn 0.000000 0.000000 1.000000
vn 0.000000 0.000000 1.000000
vn 0.000000 0.000000 1.000000
vn 0.000000 -1.000000 0.000000
vn 0.000000 -1.000000 0.000000
vn 0.000000 -1.000000 0.000000
vn 0.000000 -1.000000 0.000000
vn 0.000000 0.000000 -1.000000
vn 0.000000 0.000000 -1.000000
vn 0.000000 0.000000 -1.000000
vn 0.000000 0.000000 -1.000000
vn 0.000000 1.000000 0.000000
vn 0.000000 1.000000 0.000000
vn 0.000000 1.000000 0.000000
vn 0.000000 1.000000 0.000000
vn 1.000000 0.000000 0.000000
vn 1.000000 0.000000 0.000000
vn 1.000000 0.000000 0.000000
vn 1.000000 0.000000 0.000000
vn 0.000000 0.000000 1.000000
vn 0.000000 0.000000 1.000000
vn 0.000000 0.000000 1.000000
vn 0.000000 0.000000 1.000000
vn -1.000000 0.000000 0.000000
vn -1.000000 0.000000 0.000000
vn -1.000000 0.000000 0.000000
vn -1.000000 0.000000 0.000000
vn 0.000000 1.000000 0.000000
vn 0.000000 1.000000 0.000000
vn 0.000000 1.000000 0.000000
vn 0.000000 1.000000 0.000000
vn 1.000000 0.000000 0.000000
vn 1.000000 0.000000 0.000000
vn 1.000000 0.000000 0.000000
vn 1.000000 0.000000 0.000000
vn 0.000000 -1.000000 0.000000
vn 0.000000 -1.000000 0.000000
vn 0.000000 -1.000000 0.000000
vn 0.000000 -1.000000 0.000000
vn 1.000000 0.000000 0.000000
vn 1.000000 0.000000 0.000000
vn 1.000000 0.000000 0.000000
vn 1.000000 0.000000 0.000000
vn -1.000000 0.000000 0.000000
vn -1.000000 0.000000 0.000000
vn -1.000000 0.000000 0.000000
vn -1.000000 0.000000 0.000000
vn -1.000000 0.000000 0.000000
vn -1.000000 0.000000 0.000000
vn -1.000000 0.000000 0.000000
vn -1.000000 0.000000 0.000000
vn -1.000000 0.000000 0.000000
vn -1.000000 0.000000 0.000000
vn -1.000000 0.000000 0.000000
vn -1.000000 0.000000 0.000000
vn 0.000000 0.000000 1.000000
vn 0.000000 0.000000 1.000000
vn 0.000000 0.000000 1.000000
vn 0.000000 0.000000 1.000000
vn 0.000000 1.000000 0.000000
vn 0.000000 1.000000 0.000000
vn 0.000000 1.000000 0.000000
vn 0.000000 1.000000 0.000000
vn 0.000000 -1.000000 0.000000
vn 0.000000 -1.000000 0.000000
vn 0.000000 -1.000000 0.000000
vn 0.000000 -1.000000 0.000000
vn 0.000000 0.000000 1.000000
vn 0.000000 0.000000 1.000000
vn 0.000000 0.000000 1.000000
vn 0.000000 0.000000 1.000000
vn 0.000000 0.000000 1.000000
vn 0.000000 0.000000 1.000000
vn 0.000000 0.000000 1.000000
vn 0.000000 0.000000 1.000000
vn 0.000000 1.000000 0.000000
vn 0.000000 1.000000 0.000000
vn 0.000000 1.000000 0.000000
vn 0.000000 1.000000 0.000000
vn 0.000000 0.000000 -1.000000
vn 0.000000 0.000000 -1.000000
vn 0.000000 0.000000 -1.000000
vn 0.000000 0.000000 -1.000000
vn 0.000000 0.000000 -1.000000
vn 0.000000 0.000000 -1.000000
vn 0.000000 0.000000 -1.000000
vn 0.000000 0.000000 -1.000000
vn 0.000000 -1.000000 0.000000
vn 0.000000 -1.000000 0.000000
vn 0.000000 -1.000000 0.000000
vn 0.000000 -1.000000 0.000000
vn 0.000000 0.000000 1.000000
vn 0.000000 0.000000 1.000000
vn 0.000000 0.000000 1.000000
vn 0.000000 0.000000 1.000000
vn 0.000000 1.000000 0.000000
vn 0.000000 1.000000 0.000000
vn 0.000000 1.000000 0.000000
vn 0.000000 1.000000 0.000000
vn 1.000000 0.000000 0.000000
vn 1.000000 0.000000 0.000000
vn 1.000000 0.000000 0.000000
vn 1.000000 0.000000 0.000000
vn 0.000000 0.000000 -1.000000
vn 0.000000 0.000000 -1.000000
vn 0.000000 0.000000 -1.000000
vn 0.000000 0.000000 -1.000000
vn 1.000000 0.000000 0.000000
vn 1.000000 0.000000 0.000000
vn 1.000000 0.000000 0.000000
vn 1.000000 0.000000 0.000000
vn 1.000000 0.000000 0.000000
vn 1.000000 0.000000 0.000000
vn 1.000000 0.000000 0.000000
vn 1.000000 0.000000 0.000000
vn 0.000000 0.000000 -1.000000
vn 0.000000 0.000000 -1.000000
vn 0.000000 0.000000 -1.000000
vn 0.000000 0.000000 -1.000000
vn 0.000000 1.000000 0.000000
vn 0.000000 1.000000 0.000000
vn 0.000000 1.000000 0.000000
vn 0.000000 1.000000 0.000000
vn 0.000000 -1.000000 0.000000
vn 0.000000 -1.000000 0.000000
vn 0.000000 -1.000000 0.000000
vn 0.000000 -1.000000 0.000000
vn 0.000000 0.000000 -1.000000
vn 0.000000 0.000000 -1.000000
vn 0.000000 0.000000 -1.000000
vn 0.000000 0.000000 -1.000000
vn -1.000000 0.000000 0.000000
vn -1.000000 0.000000 0.000000
vn -1.000000 0.000000 0.000000
vn -1.000000 0.000000 0.000000
vn 0.000000 0.000000 1.000000
vn 0.000000 0.000000 1.000000
vn 0.000000 0.000000 1.000000
vn 0.000000 0.000000 1.000000
vn 1.000000 0.000000 0.000000
vn 1.000000 0.000000 0.000000
vn 1.000000 0.000000 0.000000
vn 1.000000 0.000000 0.000000
vn 1.000000 0.000000 0.000000
vn 1.000000 0.000000 0.000000
vn 1.000000 0.000000 0.000000
vn 1.000000 0.000000 0.000000
vn 0.000000 0.000000 1.000000
vn 0.000000 0.000000 1.000000
vn 0.000000 0.000000 1.000000
vn 0.000000 0.000000 1.000000
vn 0.000000 1.000000 0.000000
vn 0.000000 1.000000 0.000000
vn 0.000000 1.000000 0.000000
vn 0.000000 1.000000 0.000000
vn 0.000000 -1.000000 0.000000
vn 0.000000 -1.000000 0.000000
vn 0.000000 -1.000000 0.000000
vn 0.000000 -1.000000 0.000000
vn 0.000000 0.000000 1.000000
vn 0.000000 0.000000 1.000000
vn 0.000000 0.000000 1.000000
vn 0.000000 0.000000 1.000000
vn -1.000000 0.000000 0.000000
vn -1.000000 0.000000 0.000000
vn -1.000000 0.000000 0.000000
vn -1.000000 0.000000 0.000000
vn 0.000000 0.000000 -1.000000
vn 0.000000 0.000000 -1.000000
vn 0.000000 0.000000 -1.000000
vn 0.000000 0.000000 -1.000000
vn 1.000000 0.000000 0.000000
vn 1.000000 0.000000 0.000000
vn 1.000000 0.000000 0.000000
vn 1.000000 0.000000 0.000000
vn 0.000000 1.000000 0.000000
vn 0.000000 1.000000 0.000000
vn 0.000000 1.000000 0.000000
vn 0.000000 1.000000 0.000000
vn -1.000000 0.000000 0.000000
vn -1.000000 0.000000 0.000000
vn -1.000000 0.000000 0.000000
vn -1.000000 0.000000 0.000000
vn 0.000000 -1.000000 0.000000
vn 0.000000 -1.000000 0.000000
vn 0.000000 -1.000000 0.000000
vn 0.000000 -1.000000 0.000000
vn -1.000000 0.000000 0.000000
vn -1.000000 0.000000 0.000000
vn -1.000000 0.000000 0.000000
vn -1.000000 0.000000 0.000000
vn 1.000000 0.000000 0.000000
vn 1.000000 0.000000 0.000000
vn 1.000000 0.000000 0.000000
vn 1.000000 0.000000 0.000000
vn 0.000000 -1.000000 0.000000
vn 0.000000 -1.000000 0.000000
vn 0.000000 -1.000000 0.000000
vn 0.000000 -1.000000 0.000000
vn 0.000000 -1.000000 0.000000
vn 0.000000 -1.000000 0.000000
vn 0.000000 -1.000000 0.000000
vn 0.000000 -1.000000 0.000000
vn 1.000000 0.000000 0.000000
vn 1.000000 0.000000 0.000000
vn 1.000000 0.000000 0.000000
vn 1.000000 0.000000 0.000000
vn 0.000000 1.000000 0.000000
vn 0.000000 1.000000 0.000000
vn 0.000000 1.000000 0.000000
vn 0.000000 1.000000 0.000000
vn -1.000000 0.000000 0.000000
vn -1.000000 0.000000 0.000000
vn -1.000000 0.000000 0.000000
vn -1.000000 0.000000 0.000000
vn -1.000000 0.000000 0.000000
vn -1.000000 0.000000 0.000000
vn -1.000000 0.000000 0.000000
vn -1.000000 0.000000 0.000000
vn 0.000000 -1.000000 0.000000
vn 0.000000 -1.000000 0.000000
vn 0.000000 -1.000000 0.000000
vn 0.000000 -1.000000 0.000000
vn 1.000000 0.000000 0.000000
vn 1.000000 0.000000 0.000000
vn 1.000000 0.000000 0.000000
vn 1.000000 0.000000 0.000000
vn 0.000000 -1.000000 0.000000
vn 0.000000 -1.000000 0.000000
vn 0.000000 -1.000000 0.000000
vn 0.000000 -1.000000 0.000000
vn 0.000000 0.000000 -1.000000
vn 0.000000 0.000000 -1.000000
vn 0.000000 0.000000 -1.000000
vn 0.000000 0.000000 -1.000000
vn 0.000000 0.000000 -1.000000
vn 0.000000 0.000000 -1.000000
vn 0.000000 0.000000 -1.000000
vn 0.000000 0.000000 -1.000000
vn 0.000000 0.000000 1.000000
vn 0.000000 0.000000 1.000000
vn 0.000000 0.000000 1.000000
vn 0.000000 0.000000 1.000000
vn 0.000000 0.000000 1.000000
vn 0.000000 0.000000 1.000000
vn 0.000000 0.000000 1.000000
vn 0.000000 0.000000 1.000000
s 1
g tacotruck
usemtl initialShadingGroup
f 2/2/1 1/1/2 5/10/3
f 3/3/4 2/2/1 5/10/3
f 1/1/2 4/4/5 5/10/3
s 2
f 2/6/6 7/13/7 6/12/8 1/5/9
f 3/3/10 8/14/11 7/13/7 2/6/6
f 1/8/9 6/16/8 9/15/12 4/7/13
s 3
f 7/18/14 10/20/15 6/19/16
f 8/14/17 10/20/15 7/18/14
f 6/19/16 10/20/15 9/21/18
s off
f 9/22/19 10/20/20 15/25/21 14/30/22
s 4
f 12/23/23 11/24/24 15/25/25
f 13/26/26 12/23/23 15/25/25
f 11/24/24 14/27/27 15/25/25
s off
f 9/17/28 14/28/29 19/29/30 4/9/31
s 5
f 12/31/32 17/32/33 16/33/34 11/34/35
f 13/26/36 18/35/37 17/32/33 12/31/32
f 11/36/35 16/37/34 19/38/38 14/39/39
s 6
f 17/40/40 20/41/41 16/42/42
f 18/35/43 20/41/41 17/40/40
f 16/42/42 20/41/41 19/43/44
s off
f 4/11/45 19/44/46 20/41/47 5/10/48
f 13/26/49 15/25/50 20/41/51 18/35/52
f 3/3/53 5/10/54 10/20/55 8/14/56
f 5/10/57 20/41/58 15/25/59 10/20/60
f 21/45/61 22/46/62 24/47/63 23/48/64
f 23/48/65 24/47/66 26/49/67 25/50/68
f 25/50/69 26/49/70 28/51/71 27/52/72
f 27/52/73 28/51/74 22/53/75 21/54/76
f 22/46/77 28/55/78 26/56/79 24/47/80
f 27/57/81 21/45/82 23/48/83 25/58/84
s 7
f 35/59/85 36/60/86 30/61/87 31/62/88
f 32/63/89 29/64/90 34/65/91 33/66/92
f 33/66/92 34/65/91 36/60/86 35/59/85
s 8
f 31/67/93 49/68/94 50/69/95 35/70/96
s 9
f 30/61/97 48/71/98 49/68/99 31/67/100
s 10
f 32/72/101 52/73/102 45/74/103 29/75/104
s 8
f 33/76/105 51/77/106 52/73/107 32/72/108
f 35/70/96 50/69/95 51/77/106 33/76/105
f 85/78/109 37/79/110 38/80/111 86/81/112
s 9
f 38/80/113 39/82/114 87/83/115 86/81/116
s 11
f 39/82/117 40/84/118 88/85/119 87/83/120
f 41/86/121 42/87/122 90/88/123 89/89/124
s 10
f 42/90/125 43/91/126 91/92/127 90/93/128
s 8
f 43/91/129 44/94/130 92/95/131 91/92/132
s off
f 44/94/133 41/86/134 89/89/135 92/95/136
f 40/84/137 41/86/138 44/94/139 37/79/140
s 11
f 46/96/141 45/97/142 42/87/122 41/86/121
f 47/98/143 46/96/141 41/86/121 40/84/118
f 48/71/144 47/98/143 40/84/118 39/82/117
s 9
f 49/68/99 48/71/98 39/82/114 38/80/113
s 8
f 50/69/95 49/68/94 38/80/111 37/79/110
f 51/77/106 50/69/95 37/79/110 44/94/130
f 52/73/107 51/77/106 44/94/130 43/91/129
s 10
f 45/74/103 52/73/102 43/91/126 42/90/125
s 13
f 30/99/145 36/100/146 60/101/147 54/102/148
s off
f 48/103/149 30/99/150 54/102/151 72/104/152
s 14
f 47/105/153 48/103/154 72/104/155 71/106/156
s off
f 29/107/157 45/108/158 69/109/159 53/110/160
s 14
f 45/108/161 46/111/162 70/112/163 69/109/164
s 13
f 34/113/165 29/114/166 53/115/167 58/116/168
f 36/100/146 34/113/165 58/116/168 60/101/147
s 14
f 46/111/162 47/105/153 71/106/156 70/112/163
s 15
f 59/117/169 55/118/170 54/119/171 60/120/172
f 56/121/173 57/122/174 58/123/175 53/124/176
f 57/122/174 59/117/169 60/120/172 58/123/175
s 16
f 55/125/177 59/126/178 74/127/179 73/128/180
s 17
f 54/119/181 55/125/182 73/128/183 72/129/184
s 18
f 56/130/185 53/131/186 69/132/187 76/133/188
s 16
f 57/134/189 56/130/190 76/133/191 75/135/192
f 59/126/178 57/134/189 75/135/192 74/127/179
f 62/136/193 61/137/194 109/138/195 110/139/196
s 17
f 63/140/197 62/136/198 110/139/199 111/141/200
s 20
f 64/142/201 63/140/202 111/141/203 112/143/204
f 66/144/205 65/145/206 113/146/207 114/147/208
s 18
f 67/148/209 66/149/210 114/150/211 115/151/212
s 16
f 68/152/213 67/148/214 115/151/215 116/153/216
s off
f 65/145/217 68/152/218 116/153/219 113/146/220
f 64/142/221 61/137/222 68/152/223 65/145/224
s 20
f 70/154/225 65/145/206 66/144/205 69/155/226
f 71/156/227 64/142/201 65/145/206 70/154/225
f 72/129/228 63/140/202 64/142/201 71/156/227
s 17
f 73/128/183 62/136/198 63/140/197 72/129/184
s 16
f 74/127/179 61/137/194 62/136/193 73/128/180
f 75/135/192 68/152/213 61/137/194 74/127/179
f 76/133/191 67/148/214 68/152/213 75/135/192
s 18
f 69/132/187 66/149/210 67/148/209 76/133/188
s 22
f 83/157/229 79/158/230 78/159/231 84/160/232
f 80/161/233 81/162/234 82/163/235 77/164/236
f 81/162/234 83/157/229 84/160/232 82/163/235
s 8
f 79/165/237 83/166/238 98/167/239 97/168/240
s 9
f 78/159/241 79/165/242 97/168/243 96/169/244
s 10
f 80/170/245 77/171/246 93/172/247 100/173/248
s 8
f 81/174/249 80/170/250 100/173/251 99/175/252
f 83/166/238 81/174/249 99/175/252 98/167/239
s off
f 88/85/253 85/78/254 92/95/255 89/89/256
s 11
f 94/176/257 89/89/124 90/88/123 93/177/258
f 95/178/259 88/85/119 89/89/124 94/176/257
f 96/169/260 87/83/120 88/85/119 95/178/259
s 9
f 97/168/243 86/81/116 87/83/115 96/169/244
s 8
f 98/167/239 85/78/109 86/81/112 97/168/240
f 99/175/252 92/95/131 85/78/109 98/167/239
f 100/173/251 91/92/132 92/95/131 99/175/252
s 10
f 93/172/247 90/93/128 91/92/127 100/173/248
s 24
f 107/179/261 108/180/262 102/181/263 103/182/264
f 104/183/265 101/184/266 106/185/267 105/186/268
f 105/186/268 106/185/267 108/180/262 107/179/261
s 16
f 103/187/269 121/188/270 122/189/271 107/190/272
s 17
f 102/181/273 120/191/274 121/188/275 103/187/276
s 18
f 104/192/277 124/193/278 117/194/279 101/195/280
s 16
f 105/196/281 123/197/282 124/193/283 104/192/284
f 107/190/272 122/189/271 123/197/282 105/196/281
s off
f 112/143/285 113/146/286 116/153/287 109/138/288
s 20
f 118/198/289 117/199/290 114/147/208 113/146/207
f 119/200/291 118/198/289 113/146/207 112/143/204
f 120/191/292 119/200/291 112/143/204 111/141/203
s 17
f 121/188/275 120/191/274 111/141/200 110/139/199
s 16
f 122/189/271 121/188/270 110/139/196 109/138/195
f 123/197/282 122/189/271 109/138/195 116/153/216
f 124/193/283 123/197/282 116/153/216 115/151/215
s 18
f 117/194/279 124/193/278 115/151/212 114/150/211
s 25
f 134/201/293 102/202/294 108/203/295 133/204/296
s 26
f 135/205/297 120/206/298 102/202/299 134/201/300
s 27
f 136/207/301 119/208/302 120/206/303 135/205/304
s off
f 139/209/305 101/210/306 117/211/307 138/212/308
s 27
f 138/212/309 117/211/310 118/213/311 137/214/312
s 25
f 140/215/313 106/216/314 101/217/315 139/209/316
f 140/215/313 133/204/296 108/203/295 106/216/314
s 27
f 137/214/312 118/213/311 119/208/302 136/207/301
s off
f 40/84/317 37/79/318 85/78/319 88/85/320
f 64/142/321 112/143/322 109/138/323 61/137/324
s 25
f 78/218/325 126/219/326 125/220/327 84/221/328
s 26
f 96/222/329 127/223/330 126/219/331 78/218/332
s 27
f 95/224/333 128/225/334 127/223/335 96/222/336
f 94/226/337 129/227/338 128/225/334 95/224/333
f 93/228/339 130/229/340 129/227/338 94/226/337
s off
f 77/230/341 131/231/342 130/229/343 93/228/344
s 25
f 82/232/345 132/233/346 131/231/347 77/234/348
f 84/221/328 125/220/327 132/233/346 82/232/345
f 126/219/326 134/201/293 133/204/296 125/220/327
s 26
f 135/205/297 134/201/300 126/219/331 127/223/330
s 27
f 136/207/301 135/205/304 127/223/335 128/225/334
s off
f 133/204/349 136/207/350 128/225/351 125/220/352
f 138/212/353 137/214/354 140/215/355 139/209/356
f 137/214/357 136/207/358 133/204/359 140/215/360
f 128/225/361 129/227/362 132/233/363 125/220/364
f 129/227/365 130/229/366 131/231/367 132/233/368
